HIERARCHY
ROOT Hips
{
	OFFSET 0.000000 0.000000 0.000000
	CHANNELS 6 Xposition Yposition Zposition Zrotation Yrotation Xrotation 
	JOINT LHipJoint
	{
		OFFSET 0.000000 0.000000 0.000000
		CHANNELS 3 Zrotation Yrotation Xrotation
		JOINT LeftUpLeg
		{
			OFFSET 1.363060 -1.794630 0.839290
			CHANNELS 3 Zrotation Yrotation Xrotation
			JOINT LeftLeg
			{
				OFFSET 2.448110 -6.726130 0.000000
				CHANNELS 3 Zrotation Yrotation Xrotation
				JOINT LeftFoot
				{
					OFFSET 2.562200 -7.039590 0.000000
					CHANNELS 3 Zrotation Yrotation Xrotation
					JOINT LeftToeBase
					{
						OFFSET 0.157640 -0.433110 2.322550
						CHANNELS 3 Zrotation Yrotation Xrotation
						End Site
						{
							OFFSET 0.000000 0.000000 0.000000
						}
					}
				}
			}
		}
	}
	JOINT RHipJoint
	{
		OFFSET 0.000000 0.000000 0.000000
		CHANNELS 3 Zrotation Yrotation Xrotation
		JOINT RightUpLeg
		{
			OFFSET -1.305520 -1.794630 0.839290
			CHANNELS 3 Zrotation Yrotation Xrotation
			JOINT RightLeg
			{
				OFFSET -2.542530 -6.985550 0.000000
				CHANNELS 3 Zrotation Yrotation Xrotation
				JOINT RightFoot
				{
					OFFSET -2.568260 -7.056230 0.000000
					CHANNELS 3 Zrotation Yrotation Xrotation
					JOINT RightToeBase
					{
						OFFSET -0.164730 -0.452590 2.363150
						CHANNELS 3 Zrotation Yrotation Xrotation
						End Site
						{
							OFFSET 0.000000 0.000000 0.000000
						}
					}
				}
			}
		}
	}
}
MOTION
Frames: 33
Frame Time: 0.008333
16.357360 16.594600 1.454989 63.710818 -88.942332 -16.024517 -8.425421 -0.372787 3.456538 -7.725076 -9.298067 -62.727877 -2.409562 -0.129297 24.934339 2.986912 10.266289 -12.732957 -0.195700 -0.000000 -40.518900 8.469112 0.546091 3.252340 7.708492 4.548525 -62.886680 3.245096 -0.919851 26.011641 -2.908697 -7.182394 -14.587375 0.096600 -0.000001 -58.046000
16.337893 16.530111 1.456981 64.563310 -88.750449 -16.192220 -8.384862 -0.365098 3.534745 -7.780863 -9.707431 -64.255896 -2.406328 0.034612 26.518740 3.040641 10.147851 -13.486847 -0.345100 0.000000 -40.504700 8.473537 0.595003 3.320051 7.433149 4.654215 -64.663748 3.176516 -1.209151 28.066729 -2.994096 -7.176170 -15.475509 0.247400 -0.000000 -57.771900
16.318657 16.458786 1.458359 65.363016 -88.540495 -16.295095 -8.343309 -0.358322 3.619375 -7.823224 -10.156128 -65.863022 -2.392738 0.213903 28.233490 3.102790 10.043400 -14.308511 -0.508600 0.000000 -40.451900 8.481161 0.653104 3.390850 7.120710 4.755492 -66.517386 3.091841 -1.514896 30.247151 -3.086926 -7.189451 -16.418947 0.410400 0.000000 -57.434500
16.299834 16.380299 1.459125 66.112154 -88.310173 -16.339261 -8.300765 -0.353166 3.709502 -7.852632 -10.644428 -67.540941 -2.367708 0.407823 30.075967 3.173712 9.955044 -15.200189 -0.687400 0.000000 -40.346701 8.492472 0.721838 3.463649 6.769848 4.845464 -68.436672 2.990467 -1.834775 32.544717 -3.186851 -7.222530 -17.420126 0.587300 -0.000000 -57.021901
16.281189 16.294475 1.459331 66.798282 -88.058610 -16.317380 -8.257304 -0.350496 3.803546 -7.869686 -11.170794 -69.281458 -2.330159 0.615693 32.043363 3.253192 9.883858 -16.160417 -0.882099 -0.000000 -40.180100 8.507784 0.802599 3.537020 6.381121 4.917730 -70.409624 2.872139 -2.166423 34.950497 -3.293130 -7.275440 -18.478325 0.779099 0.000000 -56.527200
16.262967 16.201211 1.459020 67.415469 -87.785300 -16.229125 -8.213455 -0.351210 3.899582 -7.876767 -11.730457 -71.073537 -2.279495 0.836608 34.130175 3.340279 9.829551 -17.183465 -1.092400 0.000000 -39.952200 8.527332 0.895867 3.610160 5.956880 4.966690 -72.421850 2.736789 -2.507010 37.452449 -3.404950 -7.349322 -19.588600 0.986100 0.000000 -55.950800
16.245017 16.100447 1.458340 67.949722 -87.491782 -16.063739 -8.169579 -0.356434 3.995563 -7.874207 -12.318923 -72.910594 -2.214750 1.069681 36.331266 3.433818 9.792446 -18.259554 -1.316900 0.000000 -39.671000 8.551157 1.002099 3.681977 5.501663 4.988694 -74.462353 2.584742 -2.854132 40.039516 -3.521150 -7.444911 -20.742953 1.208000 0.000001 -55.299200
16.227265 15.992314 1.457404 68.390486 -87.180915 -15.816252 -8.126501 -0.367447 4.089500 -7.862789 -12.928609 -74.782939 -2.135246 1.313721 38.638483 3.532150 9.772427 -19.375490 -1.553500 0.000000 -39.351600 8.578992 1.120484 3.752442 5.021596 4.982974 -76.518047 2.416263 -3.204923 42.697379 -3.640583 -7.564123 -21.928997 1.443900 0.000000 -54.586700
16.209765 15.876872 1.456372 68.737292 -86.857086 -15.487680 -8.085119 -0.385502 4.179863 -7.841944 -13.551719 -76.682953 -2.040301 1.567190 41.041676 3.633552 9.770166 -20.515250 -1.799301 0.000000 -39.015000 8.610525 1.249635 3.821967 4.523664 4.951427 -78.577917 2.231618 -3.556572 45.411555 -3.762199 -7.709533 -23.132138 1.692300 0.000000 -53.833100
16.192214 15.754423 1.455414 68.985842 -86.526296 -15.077549 -8.046202 -0.412079 4.265453 -7.809155 -14.179882 -78.603612 -1.929174 1.828364 43.529434 3.736408 9.787065 -21.662646 -2.051300 0.000000 -38.684100 8.645075 1.387717 3.891275 4.015306 4.898590 -80.631947 2.031087 -3.906366 48.167123 -3.884860 -7.883151 -24.336830 1.951700 0.000000 -53.060600
16.174843 15.625206 1.454684 69.139759 -86.195867 -14.590354 -8.010321 -0.448572 4.345459 -7.759763 -14.804551 -80.539951 -1.801193 2.095322 46.089537 3.839483 9.825563 -22.802868 -2.307100 0.000000 -38.379100 8.681808 1.532620 3.961342 3.504454 4.832162 -82.672957 1.814954 -4.251698 50.949600 -4.007737 -8.087075 -25.528448 2.220500 0.000000 -52.292700
16.157126 15.489536 1.454269 69.209014 -85.873404 -14.035986 -7.978177 -0.495930 4.420062 -7.689374 -15.417068 -82.484745 -1.656209 2.365739 48.707136 3.941810 9.887887 -23.923962 -2.564700 0.000000 -38.116700 8.719902 1.681556 4.033863 2.998107 4.760893 -84.692106 1.583598 -4.589672 53.743241 -4.130266 -8.322878 -26.694809 2.497801 -0.000000 -51.551099
16.139031 15.347898 1.454255 69.199645 -85.566781 -13.422541 -7.949916 -0.555064 4.489347 -7.592289 -16.009239 -84.431855 -1.494232 2.637438 51.367585 4.043058 9.977230 -25.017987 -2.823500 0.000000 -37.905900 8.758302 1.832316 4.109870 2.502480 4.694227 -86.682248 1.337583 -4.917856 56.533884 -4.252063 -8.591008 -27.827373 2.783099 0.000000 -50.852900
16.120083 15.200730 1.454687 69.123774 -85.283185 -12.762540 -7.925580 -0.626275 4.554080 -7.463648 -16.574058 -86.374018 -1.315800 2.908214 54.056107 4.143330 10.096025 -26.082462 -3.084000 0.000000 -37.747800 8.796123 1.982665 4.190414 2.022977 4.640840 -88.635674 1.077933 -5.234009 59.307970 -4.372990 -8.890344 -28.923123 3.076700 0.000000 -50.210000
16.100351 15.048714 1.455630 68.980101 -85.029457 -12.057622 -7.904744 -0.709889 4.613951 -7.298675 -17.105037 -88.302461 -1.121662 3.176102 56.758826 4.243141 10.246651 -27.119730 -3.348399 -0.000000 -37.632200 8.832291 2.131460 4.274766 1.564491 4.607745 -90.543263 0.806208 -5.536411 62.052271 -4.493072 -9.218903 -29.982928 3.379300 0.000000 -49.630400
16.079241 14.892443 1.456969 68.791995 -84.807674 -11.332326 -7.887338 -0.804169 4.672218 -7.098345 -17.598846 -90.207975 -0.913738 3.439404 59.459964 4.343230 10.429372 -28.134789 -3.618700 -0.000000 -37.554701 8.866810 2.276604 4.365558 1.128492 4.599038 -92.399146 0.523713 -5.823761 64.757487 -4.612880 -9.574314 -31.012852 3.692599 0.000000 -49.111599
16.056690 14.732846 1.458738 68.556091 -84.620932 -10.588608 -7.872601 -0.909057 4.727026 -6.862212 -18.051759 -92.075927 -0.693457 3.696564 62.147098 4.444354 10.644823 -29.136863 -3.898800 -0.000000 -37.490501 8.898888 2.418325 4.458996 0.719527 4.615593 -94.188496 0.233161 -6.095329 67.411161 -4.732264 -9.951722 -32.020512 4.017900 0.000000 -48.655400
16.032515 14.570814 1.460853 68.279941 -84.467941 -9.837731 -7.860069 -1.022570 4.779567 -6.595351 -18.463973 -93.893400 -0.463013 3.946425 64.806994 4.547126 10.891311 -30.134552 -4.191499 -0.000000 -37.425200 8.928791 2.556421 4.554409 0.338521 4.654758 -95.902400 -0.063281 -6.351184 70.005493 -4.851492 -10.347089 -33.014800 4.357000 -0.000000 -48.257000
16.006299 14.407447 1.463216 67.976544 -84.344791 -9.097710 -7.849366 -1.142732 4.830120 -6.305714 -18.837401 -95.643609 -0.224748 4.187858 67.426337 4.651775 11.166206 -31.134806 -4.499500 -0.000001 -37.346300 8.957059 2.690990 4.649677 -0.013036 4.710350 -97.528313 -0.363196 -6.591736 72.532378 -4.970377 -10.755601 -34.002908 4.710700 0.000001 -47.914200
15.978156 14.243843 1.465776 67.649804 -84.246495 -8.376860 -7.840166 -1.267591 4.877705 -6.003083 -19.175049 -97.309852 0.019115 4.420018 69.993491 4.757899 11.465579 -32.141154 -4.823900 0.000000 -37.246000 8.984358 2.822773 4.741280 -0.333073 4.774060 -99.053877 -0.664197 -6.817986 74.984850 -5.088249 -11.172248 -34.988140 5.078900 -0.000001 -47.627399
15.947915 14.081153 1.468416 67.320317 -84.163859 -7.698206 -7.832265 -1.393906 4.924705 -5.699606 -19.486149 -98.879818 0.266304 4.641885 72.495233 4.865068 11.785377 -33.151505 -5.164300 -0.000000 -37.129500 9.012286 2.951597 4.829485 -0.623904 4.834815 -100.474162 -0.964815 -7.031178 77.357757 -5.204353 -11.592922 -35.968482 5.459900 0.000000 -47.402001
15.915351 13.920676 1.471040 66.991842 -84.089210 -7.069827 -7.825562 -1.519715 4.969986 -5.406631 -19.776432 -100.338135 0.514784 4.852577 74.919840 4.971900 12.120580 -34.159157 -5.518499 0.000000 -37.011200 9.041802 3.077990 4.910921 -0.884168 4.882551 -101.778621 -1.263472 -7.232408 79.645219 -5.317363 -12.014042 -36.936665 5.850500 -0.000000 -47.252300
15.880634 13.763741 1.473618 66.671055 -84.014629 -6.501839 -7.820034 -1.642886 5.013419 -5.134990 -20.053128 -101.673339 0.762689 5.051165 77.255488 5.076713 12.466110 -35.151752 -5.882199 0.000000 -36.908500 9.073986 3.201875 4.983715 -1.113654 4.907316 -102.961508 -1.558887 -7.422801 81.841354 -5.425453 -12.431165 -37.880019 6.245600 -0.000000 -47.188000
15.843815 13.611450 1.476071 66.362486 -83.932271 -5.997394 -7.815867 -1.761147 5.056198 -4.892989 -20.323769 -102.878745 1.008292 5.236605 79.490703 5.177876 12.817444 -36.113747 -6.250000 0.000001 -36.852100 9.110052 3.322599 5.047803 -1.313672 4.901241 -104.021340 -1.850375 -7.603023 83.941241 -5.527032 -12.841841 -38.782088 6.639000 -0.000000 -47.234100
15.805127 13.465113 1.478336 66.069432 -83.837567 -5.562397 -7.813205 -1.873593 5.096382 -4.688062 -20.591611 -103.943619 1.249747 5.407782 81.614285 5.273379 13.170170 -37.028576 -6.615700 -0.000000 -36.862701 9.150263 3.439809 5.100171 -1.482982 4.859017 -104.951049 -2.136457 -7.773244 85.937583 -5.620013 -13.241562 -39.626848 7.023800 -0.000000 -47.394400
15.764640 13.325812 1.480414 65.786822 -83.726903 -5.190432 -7.812269 -1.978874 5.135052 -4.523089 -20.859968 -104.866388 1.485345 5.563779 83.616006 5.361867 13.520864 -37.880523 -6.972900 0.000000 -36.962200 9.194934 3.552281 5.141357 -1.622766 4.778717 -105.751658 -2.416100 -7.933292 87.824637 -5.703183 -13.628018 -40.399306 7.393300 -0.000000 -47.682500
15.722573 13.194575 1.482252 65.502772 -83.600053 -4.870228 -7.813362 -2.076495 5.172251 -4.398178 -21.128187 -105.643951 1.713215 5.703660 85.486623 5.442329 13.866811 -38.658360 -7.316700 -0.000000 -37.158200 9.243632 3.658726 5.170988 -1.732550 4.662356 -106.421396 -2.687433 -8.082448 89.595098 -5.775866 -13.998721 -41.090328 7.742700 0.000000 -48.087900
15.678800 13.072076 1.483859 65.212788 -83.457913 -4.592412 -7.816748 -2.165584 5.209862 -4.310604 -21.395322 -106.280711 1.931566 5.826961 87.219438 5.514880 14.207238 -39.356487 -7.643800 0.000000 -37.457900 9.296090 3.757728 5.191177 -1.814632 4.514343 -106.964695 -2.948826 -8.219898 91.244184 -5.838478 -14.353385 -41.696474 8.068900 0.000000 -48.621400
15.633482 12.959219 1.485165 64.903512 -83.305479 -4.345111 -7.822928 -2.246695 5.246537 -4.257416 -21.654360 -106.772061 2.138035 5.933178 88.807812 5.579723 14.541113 -39.976664 -7.953400 -0.000001 -37.838100 9.350937 3.848095 5.200453 -1.866782 4.342984 -107.374959 -3.196925 -8.344214 92.763768 -5.892107 -14.691081 -42.225174 8.372300 -0.000000 -49.234400
15.586573 12.856614 1.486113 64.573039 -83.146816 -4.126434 -7.832252 -2.319744 5.283224 -4.235268 -21.900074 -107.118953 2.330208 6.022390 90.247241 5.638244 14.868892 -40.527895 -8.247301 0.000000 -38.274100 9.407256 3.928517 5.200586 -1.891223 4.156863 -107.651786 -3.428887 -8.454068 94.148829 -5.939076 -15.014027 -42.690450 8.656500 -0.000001 -49.895000
15.538038 12.764617 1.486620 64.225301 -82.987638 -3.936145 -7.845240 -2.384700 5.320186 -4.240333 -22.125837 -107.322021 2.505666 6.094880 91.535540 5.692260 15.191452 -41.025028 -8.529200 0.000000 -38.729400 9.464181 3.998018 5.192607 -1.888860 3.966064 -107.792949 -3.641326 -8.548175 95.394683 -5.982437 -15.325587 -43.113213 8.928101 0.000000 -50.558800
15.487926 12.683737 1.486469 63.877045 -82.832240 -3.793120 -7.862276 -2.441491 5.357610 -4.272320 -22.326034 -107.378823 2.661701 6.151378 92.670992 5.743864 15.509445 -41.487307 -8.804800 -0.000001 -39.162200 9.521026 4.055672 5.178304 -1.863125 3.779398 -107.794796 -3.831152 -8.625195 96.497980 -6.025740 -15.631293 -43.518292 9.196101 -0.000000 -51.171999
15.435651 12.614147 1.485520 63.547411 -82.684832 -3.711881 -7.883703 -2.489494 5.395801 -4.330350 -22.496073 -107.290413 2.795937 6.192759 93.653582 5.795140 15.823258 -41.934437 -9.079999 0.000000 -39.532700 9.577499 4.101092 5.159798 -1.818114 3.605522 -107.656780 -3.995577 -8.684068 97.456379 -6.072498 -15.937502 -43.929149 9.470100 -0.000001 -51.690499
